<?xml version="1.0" standalone="no"?>
<!DOCTYPE svg PUBLIC "-//W3C//DTD SVG 20010904//EN"
 "http://www.w3.org/TR/2001/REC-SVG-20010904/DTD/svg10.dtd">
<svg version="1.0" xmlns="http://www.w3.org/2000/svg"
 width="750.000000pt" height="750.000000pt" viewBox="0 0 750.000000 750.000000"
 preserveAspectRatio="xMidYMid meet">

<g transform="translate(0.000000,750.000000) scale(0.100000,-0.100000)"
fill="#000000" stroke="none">
<path d="M3730 6565 c-58 -58 -121 -117 -142 -131 l-36 -25 24 -56 c53 -119
92 -330 79 -427 -8 -57 -33 -87 -66 -79 -37 10 -98 82 -137 163 l-38 77 -39
-43 c-64 -68 -116 -71 -185 -8 -67 60 -76 132 -26 191 l25 30 -195 92 c-107
52 -197 92 -199 89 -2 -2 57 -162 133 -356 l137 -351 60 -39 c33 -22 76 -55
95 -74 26 -26 50 -38 94 -47 148 -32 355 -118 424 -176 l31 -26 58 39 c120 81
292 152 369 152 23 0 53 13 92 39 70 47 124 75 180 91 23 7 42 14 42 15 0 1
67 173 150 381 82 208 148 379 147 381 -2 1 -43 -27 -92 -62 -102 -73 -236
-145 -269 -145 -36 0 -37 -9 -9 -64 57 -111 15 -276 -71 -276 -39 0 -116 96
-136 170 -6 22 -11 17 -45 -52 -101 -209 -240 -213 -239 -8 1 89 23 176 74
285 l37 81 -68 73 c-38 40 -87 102 -110 137 -23 35 -42 64 -43 64 -1 0 -49
-47 -106 -105z m114 -156 l35 -70 -35 -45 c-19 -25 -34 -50 -34 -55 0 -5 -4
-9 -10 -9 -5 0 -10 25 -10 55 0 50 -2 55 -25 61 -32 8 -32 18 -1 32 19 8 26
22 31 56 4 26 9 46 11 46 2 0 19 -32 38 -71z m-25 -271 c10 -37 10 -49 -6 -83
l-17 -40 -4 30 c-2 17 -10 35 -18 41 -12 9 -11 17 4 52 9 23 20 42 23 42 4 0
12 -19 18 -42z"/>
<path d="M2509 6249 c-682 -446 -1140 -1243 -1229 -2138 -14 -148 -12 -494 4
-641 64 -566 257 -1062 583 -1498 115 -155 363 -403 518 -518 308 -230 624
-367 1015 -441 137 -25 573 -25 710 0 518 98 912 308 1290 686 324 325 544
688 694 1146 110 338 152 639 143 1039 -7 359 -47 596 -153 913 -198 596 -567
1101 -1040 1423 l-105 71 -45 -97 c-25 -54 -56 -121 -69 -150 l-23 -51 65 -43
c727 -478 1166 -1149 1244 -1899 17 -162 6 -518 -20 -693 -149 -971 -751
-1772 -1575 -2093 -157 -61 -195 -67 -51 -7 285 117 487 238 631 376 76 73 87
87 100 138 21 83 31 247 23 368 -15 214 -58 335 -156 440 -54 58 -95 82 -113
64 -5 -5 4 -61 20 -127 75 -307 61 -489 -60 -743 -40 -83 -146 -250 -175 -274
-13 -11 -14 -4 -9 62 12 132 -25 268 -104 387 -20 29 -79 101 -131 158 -53 58
-104 117 -113 131 -20 30 -23 89 -8 144 7 23 7 50 2 70 -7 28 -13 33 -37 33
-36 0 -83 -57 -116 -142 -19 -47 -23 -78 -23 -168 -1 -124 -2 -121 105 -396
109 -283 114 -319 62 -423 -36 -72 -130 -186 -153 -186 -10 0 -27 -3 -37 -6
-16 -6 -15 -5 2 9 19 14 20 26 18 179 0 90 -6 201 -13 248 -22 160 -109 385
-168 430 -31 25 -48 16 -27 -16 27 -42 46 -146 52 -294 6 -158 1 -197 -58
-451 l-32 -137 -51 -6 c-28 -3 -78 -6 -111 -5 l-60 0 -73 147 c-93 189 -97
211 -77 439 8 98 15 196 15 218 0 49 -18 117 -29 111 -4 -3 -11 -36 -14 -73
-4 -49 -24 -115 -71 -238 -35 -93 -70 -198 -76 -233 -15 -72 -9 -271 9 -316
11 -29 11 -29 -21 -22 -18 4 -50 9 -70 12 -33 6 -35 8 -25 25 9 14 4 44 -22
146 -73 280 -74 414 -5 680 41 160 41 218 -1 352 -23 73 -64 141 -85 141 -4 0
-13 -27 -18 -59 -13 -73 -29 -103 -136 -264 -47 -71 -95 -154 -106 -185 -39
-102 -25 -255 33 -367 11 -22 39 -116 63 -210 l42 -169 108 -37 c127 -44 127
-50 0 -13 -809 234 -1459 955 -1690 1873 -65 260 -80 389 -80 711 -1 298 7
379 55 590 52 226 175 522 299 720 213 342 551 676 906 896 l93 57 -65 128
c-35 71 -68 129 -73 129 -5 0 -51 -28 -102 -61z"/>
<path d="M2638 5749 c-27 -17 -48 -35 -48 -38 0 -4 26 -15 58 -25 86 -28 163
-69 318 -172 137 -91 164 -105 164 -85 0 14 -254 245 -326 297 -83 59 -107 63
-166 23z"/>
<path d="M4851 5742 c-35 -38 -84 -129 -76 -142 14 -22 41 -6 107 62 l69 72
-23 18 c-32 24 -46 22 -77 -10z"/>
<path d="M5011 5596 c-28 -25 -76 -64 -106 -86 -48 -35 -54 -43 -45 -60 13
-24 12 -24 54 -6 46 19 158 43 241 52 l69 7 -62 58 c-92 87 -92 87 -151 35z"/>
<path d="M2552 5538 c3 -7 59 -42 126 -78 141 -75 241 -156 347 -279 136 -159
302 -283 396 -296 28 -4 53 -4 56 -1 3 3 -17 29 -44 58 -28 29 -97 105 -155
168 -213 233 -356 331 -589 404 -126 39 -143 42 -137 24z"/>
<path d="M4776 5518 c-157 -43 -298 -127 -416 -248 -64 -65 -138 -175 -126
-187 5 -5 95 15 128 28 14 6 66 54 114 106 57 61 137 133 228 201 78 58 143
107 145 109 14 11 -13 8 -73 -9z"/>
<path d="M2252 5443 l-71 -78 142 -16 c78 -9 169 -22 201 -28 102 -19 106 -17
61 30 -46 47 -127 105 -202 143 -29 14 -54 26 -57 26 -2 0 -36 -35 -74 -77z"/>
<path d="M5155 5382 c-220 -96 -323 -163 -368 -241 -17 -30 -17 -31 0 -31 10
0 32 9 48 21 93 63 249 128 421 174 55 15 101 29 103 31 5 5 -80 94 -89 94 -3
0 -54 -22 -115 -48z"/>
<path d="M4752 5323 c-136 -58 -242 -173 -242 -261 0 -26 9 -38 54 -71 72 -54
117 -108 167 -204 44 -86 51 -86 64 -9 l7 43 52 -91 c73 -128 126 -186 200
-221 94 -45 104 -39 49 29 -102 125 -162 251 -163 340 0 80 80 196 164 236
113 53 268 31 350 -50 15 -16 35 -42 44 -59 22 -41 20 -136 -6 -210 -11 -33
-19 -61 -17 -63 4 -4 237 27 243 32 8 8 -104 211 -188 340 l-82 126 -68 0
c-83 0 -275 -32 -352 -59 -84 -29 -173 -74 -252 -126 -73 -48 -79 -47 -92 3
-14 52 15 103 112 201 123 123 112 141 -44 74z"/>
<path d="M3247 5340 c-27 -5 -51 -11 -54 -14 -3 -2 46 -30 108 -61 149 -74
200 -115 311 -246 118 -139 128 -141 83 -23 -34 90 -102 190 -178 261 -98 92
-140 104 -270 83z"/>
<path d="M2770 5332 c0 -5 8 -20 19 -33 23 -29 49 -104 56 -162 4 -23 8 -57
11 -75 l5 -32 -68 41 c-37 23 -81 52 -98 64 -52 39 -154 86 -234 106 -51 14
-125 22 -227 26 l-152 6 -58 -79 c-91 -122 -144 -222 -144 -268 0 -35 7 -46
60 -97 33 -31 60 -62 60 -67 0 -16 65 -52 94 -52 28 0 66 31 66 54 0 7 -15 30
-34 50 -57 60 -61 178 -10 283 42 87 119 116 253 94 115 -19 220 -82 257 -153
28 -54 15 -167 -29 -260 -49 -101 -83 -130 -188 -157 -97 -26 -298 -95 -349
-121 -46 -23 -93 -67 -85 -80 23 -37 348 44 499 123 67 35 157 120 211 199 40
57 40 50 1 -55 -26 -69 -33 -111 -17 -105 5 2 59 67 121 146 62 78 124 151
137 162 14 11 51 27 82 37 31 9 60 20 65 24 5 5 -14 55 -44 115 -40 80 -69
123 -114 169 -57 58 -146 117 -146 97z"/>
<path d="M4143 5285 c-91 -39 -233 -163 -233 -203 0 -10 13 -30 29 -45 22 -19
33 -41 41 -85 15 -73 26 -93 40 -72 5 8 10 27 10 41 0 29 68 172 127 269 67
110 67 110 41 110 -13 -1 -37 -7 -55 -15z"/>
<path d="M2340 5040 c-52 -19 -95 -54 -85 -69 2 -4 28 -6 57 -3 43 3 58 0 81
-18 15 -12 27 -28 27 -37 0 -25 -51 -112 -76 -128 -45 -29 -21 -105 33 -105
55 0 157 104 188 191 20 54 19 77 -3 118 -37 69 -119 87 -222 51z"/>
<path d="M5113 5031 c-69 -32 -120 -132 -110 -217 6 -61 46 -134 87 -161 40
-27 111 -31 134 -7 9 8 16 31 16 50 0 35 -3 39 -74 103 -49 43 -27 120 39 137
48 12 89 -9 122 -62 10 -16 13 -17 22 -4 17 24 25 81 15 109 -5 14 -24 36 -43
48 -44 30 -146 32 -208 4z"/>
<path d="M3418 4783 c-29 -36 -52 -79 -74 -141 -12 -34 -23 -63 -25 -64 -2 0
-44 5 -93 12 -166 23 -299 0 -351 -62 -43 -51 -36 -60 55 -72 65 -9 105 -38
135 -95 30 -61 41 -67 147 -87 46 -8 90 -17 99 -20 9 -2 41 -61 74 -134 31
-72 61 -130 64 -130 4 0 16 19 28 43 l20 42 -35 108 -35 108 18 75 c15 63 16
88 7 157 -9 75 -2 213 12 236 3 4 -3 16 -13 25 -16 15 -19 15 -33 -1z m-147
-253 c21 -17 22 -21 9 -30 -28 -19 -62 -23 -101 -10 -53 18 -55 25 -16 44 43
21 80 20 108 -4z m-36 -94 c28 0 64 4 82 8 l32 8 -9 -32 c-13 -46 -37 -79 -64
-90 -33 -12 -97 6 -137 39 -32 27 -32 27 -14 54 14 22 22 26 39 20 11 -5 44
-8 71 -7z"/>
<path d="M4056 4775 c-15 -23 -15 -29 5 -87 19 -56 21 -76 15 -181 -5 -80 -3
-138 6 -178 13 -63 11 -71 -49 -235 -2 -6 7 -24 20 -39 l24 -28 59 98 60 99
84 27 c47 15 102 30 122 34 33 5 43 14 82 75 42 64 84 100 119 100 12 0 12 8
1 52 -8 29 -21 59 -29 68 -23 22 -149 17 -263 -10 -52 -12 -97 -18 -102 -14
-4 5 -13 27 -20 49 -19 62 -91 195 -105 195 -7 0 -20 -11 -29 -25z m314 -271
c47 -19 44 -25 -24 -47 -45 -15 -51 -15 -77 0 -16 10 -29 22 -29 28 0 37 63
46 130 19z m-58 -98 c68 -1 79 -4 93 -23 15 -21 14 -24 -25 -52 -79 -57 -148
-49 -180 21 -28 61 -26 72 8 62 15 -4 62 -8 104 -8z"/>
<path d="M1782 4651 c-30 -10 -60 -25 -67 -32 -10 -10 -105 -314 -105 -336 0
-2 11 -3 24 -3 17 0 64 43 180 165 139 146 156 166 146 184 -24 45 -89 53
-178 22z"/>
<path d="M5505 4603 c-45 -12 -166 -66 -160 -71 3 -3 43 -5 88 -4 129 4 268
-44 356 -123 62 -56 73 -45 47 50 -33 125 -64 148 -211 151 -55 2 -109 0 -120
-3z"/>
<path d="M2500 4436 c-39 -27 -66 -61 -101 -126 -21 -40 -23 -56 -20 -140 8
-232 7 -240 -27 -314 -42 -90 -94 -159 -211 -278 -114 -118 -105 -125 59 -43
60 30 112 55 116 55 7 0 -22 -52 -209 -378 -80 -138 -155 -280 -166 -315 -28
-85 -48 -200 -62 -353 -12 -128 -12 -130 14 -202 14 -40 44 -105 67 -145 40
-71 153 -217 168 -217 4 0 4 46 -1 103 -17 215 14 430 82 572 49 101 108 166
289 323 171 148 225 218 256 334 l14 53 13 -35 c7 -19 36 -82 65 -140 48 -96
88 -150 155 -206 46 -38 162 -189 186 -241 13 -29 33 -84 44 -124 11 -40 29
-86 41 -102 27 -38 99 -82 221 -137 161 -71 208 -127 223 -261 7 -66 49 -217
65 -233 17 -19 32 13 36 73 3 70 44 189 85 250 16 25 75 88 130 140 134 127
258 276 306 368 l39 74 12 -43 c27 -88 65 -143 181 -264 127 -131 160 -185
195 -314 31 -117 66 -140 112 -71 35 52 46 106 40 206 -7 118 -36 204 -147
435 -112 232 -130 284 -130 373 0 67 37 204 74 274 13 25 13 25 20 -23 10 -72
49 -176 96 -255 41 -69 127 -161 335 -359 113 -107 150 -169 185 -306 27 -104
42 -283 34 -403 l-7 -96 42 40 c52 49 115 144 170 252 40 81 41 85 41 185 -1
148 -21 247 -71 345 -53 106 -170 246 -292 351 -95 82 -269 259 -331 337 -34
43 -32 42 69 -25 88 -59 173 -103 290 -147 147 -57 204 -91 290 -179 89 -90
171 -218 201 -314 11 -33 22 -60 26 -60 13 0 120 475 133 597 l7 62 -68 44
c-134 86 -301 136 -564 168 -161 20 -244 43 -272 76 -15 18 10 17 134 -7 116
-22 160 -25 189 -10 27 15 24 26 -13 41 -64 26 -177 108 -211 154 -73 95 -164
297 -217 482 -21 75 -64 142 -73 113 -3 -8 -9 -49 -14 -92 -8 -56 -21 -98 -53
-162 l-42 -85 6 -133 6 -133 -38 -73 -38 -73 -26 48 c-33 61 -52 153 -43 209
8 53 -7 58 -32 12 -28 -55 -22 -155 16 -273 53 -159 50 -181 -40 -365 -56
-115 -85 -164 -114 -189 l-39 -34 -106 7 c-205 13 -317 53 -402 143 -73 79
-99 145 -79 206 16 47 52 77 158 132 69 35 106 62 147 106 60 65 72 97 64 180
-7 72 -18 78 -70 37 -61 -50 -101 -68 -151 -68 -44 0 -127 24 -183 53 -29 15
-33 14 -110 -25 -75 -38 -83 -40 -149 -35 -50 3 -89 13 -140 36 -38 17 -75 29
-81 27 -23 -9 -28 -73 -10 -121 25 -63 78 -106 225 -180 71 -35 137 -74 145
-87 36 -51 3 -170 -65 -235 -37 -35 -186 -109 -289 -143 -92 -31 -204 -25
-277 15 -125 67 -191 168 -200 303 -5 74 0 113 42 350 21 121 9 190 -41 240
-19 19 -37 32 -40 29 -3 -3 -1 -22 5 -44 6 -21 11 -59 11 -85 0 -52 -20 -148
-30 -148 -25 0 -90 223 -90 308 0 35 -35 122 -49 122 -4 0 -16 -16 -27 -35
l-20 -35 -42 56 c-49 66 -52 97 -22 175 12 29 17 56 13 60 -5 5 -24 -2 -43
-15z m1330 -1337 c36 -5 117 -26 180 -46 108 -35 123 -37 252 -37 121 -1 135
-3 128 -17 -5 -9 -16 -21 -24 -29 -25 -20 -81 -119 -117 -205 -41 -99 -129
-193 -229 -242 -139 -70 -328 -71 -513 -2 -108 40 -195 144 -242 286 -13 41
-28 63 -71 99 -30 26 -54 49 -54 53 0 3 53 13 118 22 83 12 150 29 232 60 180
67 231 76 340 58z"/>
<path d="M2213 4356 c-70 -36 -195 -109 -278 -164 -307 -204 -347 -255 -354
-446 -3 -105 2 -158 45 -421 17 -105 73 -347 83 -357 4 -4 17 65 29 155 33
251 49 301 132 420 141 203 166 245 242 399 42 86 118 226 167 312 50 85 91
157 91 160 0 15 -39 1 -157 -58z"/>
<path d="M5021 4369 c70 -138 176 -258 334 -378 82 -62 248 -144 392 -195 125
-43 190 -53 217 -33 39 29 28 173 -25 353 l-21 71 -186 6 c-103 4 -216 13
-252 21 -93 20 -268 92 -473 194 -5 2 1 -15 14 -39z"/>
<path d="M2847 3023 c-2 -4 -10 -26 -17 -48 -54 -169 -177 -323 -345 -432 -55
-36 -113 -77 -128 -91 -71 -67 -126 -202 -168 -411 l-22 -110 28 -41 c62 -90
375 -373 515 -467 46 -30 249 -127 255 -121 2 2 -30 55 -71 118 -139 214 -205
364 -219 500 -9 89 12 164 123 441 131 330 137 349 137 454 0 80 -3 97 -30
150 -29 56 -48 76 -58 58z"/>
</g>
</svg>
